<?xml version="1.0" standalone="no"?>
<!DOCTYPE svg PUBLIC "-//W3C//DTD SVG 20010904//EN"
 "http://www.w3.org/TR/2001/REC-SVG-20010904/DTD/svg10.dtd">
<svg version="1.0" xmlns="http://www.w3.org/2000/svg"
 width="1024.000000pt" height="1024.000000pt" viewBox="0 0 1024.000000 1024.000000"
 preserveAspectRatio="xMidYMid meet">
<metadata>
Created by potrace 1.14, written by Peter Selinger 2001-2017
</metadata>
<g transform="translate(0.000000,1024.000000) scale(0.100000,-0.100000)"
fill="#000000" stroke="none">
<path d="M4900 10236 c-3 -2 -29 -7 -59 -10 -77 -9 -207 -46 -288 -82 -18 -8
-35 -15 -38 -15 -10 1 -140 -73 -147 -83 -4 -6 -8 -7 -8 -3 0 10 -60 -25 -60
-35 0 -4 -5 -8 -10 -8 -21 0 -126 -85 -211 -169 -84 -85 -156 -179 -196 -256
-11 -22 -28 -53 -36 -70 -9 -16 -23 -48 -32 -70 -9 -22 -20 -49 -25 -60 -18
-40 -49 -173 -56 -236 -18 -167 -16 -217 12 -429 5 -40 50 -241 54 -247 2 -2
4 -7 5 -13 1 -5 4 -12 5 -15 3 -6 3 -6 14 -55 5 -19 13 -41 18 -47 6 -7 7 -13
3 -13 -4 0 -3 -6 2 -12 6 -7 25 -56 43 -108 17 -52 42 -115 53 -140 12 -25 21
-47 22 -50 1 -3 13 -27 27 -55 14 -27 46 -88 70 -135 72 -138 156 -278 190
-316 10 -11 18 -25 18 -32 0 -6 8 -16 18 -21 9 -6 13 -11 9 -11 -9 0 25 -51
55 -84 10 -11 18 -23 18 -27 0 -5 10 -18 23 -31 25 -26 147 -187 147 -194 0
-3 -48 -3 -107 0 -60 3 -202 8 -318 12 -115 3 -217 8 -226 9 -9 2 -61 6 -115
10 -55 4 -109 8 -120 10 -12 2 -48 7 -80 10 -57 7 -166 49 -199 77 -35 29 -77
75 -93 101 -9 15 -20 27 -24 27 -4 0 -8 7 -8 15 0 8 -4 15 -10 15 -5 0 -10 7
-10 15 0 8 -5 15 -12 15 -6 0 -9 3 -5 6 3 4 -4 21 -17 38 -12 17 -31 51 -43
76 -11 25 -31 69 -44 98 -13 29 -30 51 -37 50 -7 -2 -12 -7 -12 -12 1 -5 -3
-12 -10 -16 -6 -4 -13 -13 -14 -21 -2 -8 -22 -54 -44 -102 -23 -49 -42 -91
-42 -93 0 -2 -12 -29 -26 -61 -15 -31 -27 -62 -29 -67 -1 -6 -12 -33 -24 -61
-62 -137 -121 -343 -121 -421 0 -83 80 -294 111 -294 5 0 9 -5 9 -10 0 -12 49
-68 116 -136 34 -34 118 -98 182 -139 9 -5 22 -16 30 -23 7 -7 18 -10 23 -7 5
4 9 2 9 -3 0 -12 48 -34 83 -39 21 -3 27 0 27 14 0 16 -23 59 -40 73 -3 3 -30
34 -60 70 -30 36 -58 67 -62 68 -5 2 -8 10 -8 17 0 7 -4 15 -8 17 -10 4 -64
84 -79 118 -46 104 -48 156 -5 198 33 32 69 48 137 62 87 18 352 13 485 -10
30 -5 80 -12 110 -16 79 -9 83 -10 220 -39 69 -15 133 -31 142 -36 10 -5 31
-9 47 -9 17 0 33 -4 36 -10 3 -5 15 -10 26 -10 26 0 161 -53 270 -106 115 -56
191 -106 243 -160 46 -47 116 -153 116 -176 0 -8 5 -19 12 -26 7 -7 9 -12 5
-12 -3 0 -2 -12 4 -27 20 -54 11 -229 -15 -298 -41 -105 -52 -131 -58 -135 -4
-3 -14 -22 -22 -42 -9 -20 -21 -40 -27 -43 -6 -4 -8 -22 -5 -44 11 -67 36
-365 41 -496 11 -236 19 -478 18 -585 0 -163 -19 -696 -28 -785 -5 -54 -23
-280 -31 -410 -3 -44 -7 -96 -9 -115 -23 -188 -27 -914 -7 -1160 14 -168 40
-427 47 -475 2 -16 7 -64 11 -105 3 -41 8 -86 10 -100 2 -14 5 -43 8 -65 8
-66 46 -309 51 -325 3 -8 7 -38 11 -65 3 -27 7 -52 10 -56 2 -4 6 -27 9 -50 3
-24 10 -60 15 -79 5 -19 11 -48 14 -65 15 -90 25 -142 30 -155 3 -8 7 -31 10
-50 5 -30 14 -82 29 -155 3 -11 10 -54 17 -95 6 -41 18 -96 25 -122 7 -25 11
-49 8 -51 -2 -3 1 -15 7 -27 17 -31 52 -23 61 15 13 51 33 149 35 165 1 8 9
53 18 100 10 47 19 100 22 119 2 18 6 37 9 41 2 4 7 26 10 50 3 23 7 45 10 50
2 4 7 26 10 48 2 23 10 63 16 89 7 26 13 59 15 73 2 14 6 36 9 50 3 14 8 41
10 60 3 19 9 55 15 80 5 25 17 94 25 154 9 60 18 112 20 116 2 3 6 40 10 81 5
63 21 211 40 364 11 83 42 453 46 535 11 237 1 879 -16 1040 -2 19 -6 71 -10
115 -3 44 -10 127 -15 185 -5 58 -12 150 -15 205 -3 55 -8 116 -10 135 -6 52
-15 427 -16 650 0 353 16 681 50 1015 6 63 5 86 -7 110 -8 17 -18 32 -22 35
-14 10 -91 215 -97 260 -19 131 5 267 58 342 13 18 23 34 21 36 -3 3 49 61 82
91 16 14 38 34 48 44 10 9 20 17 23 17 2 0 28 15 57 34 61 38 163 87 258 123
75 28 72 27 125 38 22 4 44 10 50 13 5 3 16 7 25 8 8 1 65 14 125 28 116 27
263 54 330 61 22 3 56 7 75 10 122 18 370 21 447 6 170 -33 209 -136 111 -291
-15 -25 -31 -53 -34 -62 -4 -10 -10 -18 -15 -18 -5 0 -9 -4 -9 -10 0 -5 -12
-23 -27 -39 -110 -117 -158 -184 -149 -206 6 -17 56 -21 56 -5 0 6 4 10 9 10
14 0 124 67 149 90 12 11 23 19 25 18 11 -8 99 71 183 162 150 165 188 329
128 550 -14 52 -32 109 -39 125 -13 29 -27 65 -29 75 -1 3 -14 31 -29 64 -15
32 -27 65 -27 72 0 8 -5 14 -12 14 -6 0 -9 3 -5 6 3 3 -3 23 -14 42 -10 20
-19 40 -19 43 0 4 -19 47 -42 96 -23 48 -41 91 -40 96 1 4 -3 7 -8 7 -5 0 -9
5 -7 12 4 20 -32 21 -39 1 -44 -133 -154 -314 -245 -404 -90 -89 -135 -105
-369 -128 -159 -16 -228 -21 -400 -26 -91 -3 -227 -8 -302 -10 -76 -3 -138 -3
-138 0 0 3 13 20 29 38 16 17 30 36 29 41 0 5 4 12 9 15 5 3 24 26 43 51 19
25 43 54 53 65 29 31 132 189 129 197 -1 5 2 8 8 8 5 0 17 15 26 33 9 17 20
34 23 37 21 16 228 407 256 485 10 28 21 55 25 60 4 6 21 53 39 105 18 52 37
103 42 112 8 15 16 46 34 122 2 10 9 33 15 50 5 17 12 49 16 70 3 22 10 50 15
63 5 13 8 27 7 31 -1 4 2 41 7 82 10 92 10 345 -1 403 -4 23 -7 45 -6 49 1 3
-7 32 -18 62 -10 31 -17 56 -14 56 2 0 -2 13 -10 29 -9 16 -12 31 -9 35 4 3 0
6 -7 6 -7 0 -10 3 -7 6 17 17 -134 271 -210 354 -17 19 -40 44 -50 55 -29 33
-154 138 -205 173 -84 58 -270 147 -378 181 -58 18 -118 37 -135 43 -29 11
-556 24 -565 14z m505 -336 c122 -31 216 -64 257 -92 14 -10 28 -18 31 -18 9
0 100 -63 146 -100 97 -79 164 -157 238 -278 22 -36 62 -117 62 -127 0 -3 7
-18 14 -33 52 -103 65 -312 32 -542 -2 -14 -6 -52 -9 -85 -4 -33 -11 -73 -16
-90 -5 -16 -11 -41 -14 -55 -3 -14 -12 -50 -21 -80 -9 -30 -17 -62 -19 -70 -2
-8 -34 -88 -70 -177 -63 -156 -121 -274 -138 -281 -4 -2 -8 -8 -8 -13 0 -6
-16 -35 -35 -65 -19 -30 -35 -57 -35 -59 0 -10 -140 -204 -174 -240 -10 -11
-30 -35 -45 -54 -14 -19 -66 -76 -116 -126 -90 -92 -169 -179 -185 -205 -17
-27 -20 -3 -20 131 1 138 1 144 14 216 4 24 8 46 8 50 0 5 4 14 10 21 6 6 7
12 4 12 -4 0 -1 10 6 23 7 12 12 24 13 27 0 3 12 25 27 50 31 54 108 133 161
167 50 31 45 52 -14 67 -50 13 -102 46 -138 89 -14 16 -29 34 -35 41 -25 26
-89 132 -101 166 -1 3 -4 12 -7 20 -30 79 -66 197 -72 235 -7 44 -42 45 -52 3
-22 -96 -42 -162 -63 -211 -11 -26 -20 -49 -21 -52 0 -14 -29 -73 -41 -85 -8
-8 -23 -29 -34 -46 -27 -43 -88 -109 -120 -130 -15 -10 -48 -23 -73 -29 -31
-8 -47 -18 -47 -28 0 -8 27 -36 60 -61 74 -58 157 -161 160 -198 0 -3 3 -10 8
-14 4 -4 7 -16 7 -26 0 -10 4 -18 8 -18 4 0 8 -8 9 -17 1 -10 6 -49 12 -88 6
-38 10 -128 11 -200 l0 -130 -53 59 c-28 32 -88 95 -132 140 -66 67 -160 172
-198 221 -78 101 -146 195 -141 195 4 0 -4 15 -18 33 -13 17 -32 49 -43 70
-11 20 -23 37 -28 37 -4 0 -6 4 -2 9 3 5 1 12 -5 16 -12 7 -65 107 -62 117 1
3 -5 12 -13 18 -8 7 -15 20 -15 29 0 9 -4 21 -8 27 -5 5 -17 29 -27 54 -9 25
-22 56 -28 70 -6 14 -11 27 -12 30 -1 3 -16 51 -34 107 -18 57 -31 104 -30
105 1 2 -2 12 -8 23 -6 11 -14 38 -17 60 -4 22 -11 56 -16 75 -5 19 -12 69
-15 110 -4 41 -9 100 -11 130 -10 108 -5 229 12 323 10 52 10 52 34 112 19 47
95 191 107 203 7 8 27 35 45 60 62 91 205 213 333 282 50 28 172 74 223 86
122 27 173 32 317 32 140 -1 174 -4 270 -28z"/>
</g>
</svg>
